<svg width="499" height="357" viewBox="0 0 499 357" fill="none" xmlns="http://www.w3.org/2000/svg">
<rect width="498.5" height="357" rx="37.5" fill="#FF0000"/>
<g clip-path="url(#clip0_105_64)">
<rect width="398.5" height="257" transform="translate(50 50)" fill="#FF0000"/>
<path d="M74.1105 105.628C75.7607 105.628 76.9709 105.129 77.741 104.13C78.5111 103.131 79.095 101.921 79.4928 100.499H90.2659C90.0374 102.607 89.4958 104.587 88.6411 106.44C87.7863 108.294 86.6608 109.902 85.2644 111.273C83.868 112.643 82.2178 113.727 80.3052 114.522C78.3926 115.318 76.3616 115.715 74.1951 115.715H66.8409C64.5644 115.715 62.398 115.275 60.3415 114.387C58.2935 113.507 56.491 112.297 54.9592 110.756C53.419 109.216 52.2088 107.422 51.3287 105.374C50.4485 103.326 50 101.126 50 98.7899V74.5102C50 72.1745 50.4401 69.9657 51.3287 67.8838C52.2088 65.802 53.419 63.991 54.9592 62.4592C56.4994 60.9274 58.2935 59.7088 60.3415 58.8287C62.398 57.9485 64.556 57.5 66.8409 57.5H74.1951C76.4208 57.5 78.4688 57.8978 80.3475 58.6933C82.2263 59.4888 83.868 60.5889 85.2644 61.9853C86.6608 63.3816 87.7863 65.0234 88.6411 66.9021C89.4958 68.7809 90.0374 70.8035 90.2659 72.97H79.4928C79.2051 71.489 78.6634 70.2365 77.8679 69.204C77.0724 68.18 75.8199 67.6638 74.1105 67.6638H66.9256C64.9283 67.6638 63.3458 68.3747 62.1779 69.8049C61.0101 71.2266 60.4261 72.97 60.4261 75.018V98.1806C60.4261 100.229 61.0101 101.989 62.1779 103.436C63.3458 104.892 64.9283 105.619 66.9256 105.619H74.1105V105.628Z" fill="#FFFEEE"/>
<path d="M121.434 106.821H105.787L103.646 115.715H93.304L108.275 57.5H119.386L133.748 115.715H123.491L121.443 106.821H121.434ZM107.843 98.1891H119.471L114.089 74.4256H113.488L107.843 98.1891Z" fill="#FFFEEE"/>
<path d="M149.175 105.882H180.716V115.715H138.918V57.5H149.175V105.882Z" fill="#FFFEEE"/>
<path d="M186.285 57.5H197.142V115.715H186.285V57.5Z" fill="#FFFEEE"/>
<path d="M214.144 115.715H204.31V57.5H244.314V67.3338H213.882V81.6951H244.399V91.4442H214.136V115.724L214.144 115.715Z" fill="#FFFEEE"/>
<path d="M273.375 57.5C275.652 57.5 277.818 57.9401 279.875 58.8287C281.923 59.7088 283.725 60.9274 285.257 62.4592C286.789 63.991 288.007 65.8105 288.887 67.8838C289.767 69.9657 290.216 72.1745 290.216 74.5102V98.7899C290.216 101.126 289.776 103.317 288.887 105.374C288.007 107.422 286.797 109.225 285.257 110.756C283.717 112.297 281.923 113.507 279.875 114.387C277.827 115.267 275.66 115.715 273.375 115.715H266.706C264.371 115.715 262.179 115.275 260.122 114.387C258.074 113.507 256.289 112.297 254.782 110.756C253.268 109.216 252.057 107.422 251.152 105.374C250.246 103.326 249.781 101.126 249.781 98.7899V74.5102C249.781 72.1745 250.238 69.9657 251.152 67.8838C252.066 65.802 253.276 63.991 254.782 62.4592C256.289 60.919 258.074 59.7088 260.122 58.8287C262.179 57.9485 264.371 57.5 266.706 57.5L273.375 57.5ZM279.781 75.0264C279.781 72.9784 279.197 71.2351 278.03 69.8133C276.862 68.3916 275.279 67.6723 273.282 67.6723H266.783C264.785 67.6723 263.203 68.3831 262.035 69.8133C260.867 71.2351 260.283 72.9784 260.283 75.0264V98.1891C260.283 100.237 260.867 101.997 262.035 103.444C263.203 104.9 264.785 105.628 266.783 105.628H273.282C275.279 105.628 276.853 104.9 278.03 103.444C279.197 101.989 279.781 100.237 279.781 98.1891V75.0264Z" fill="#FFFEEE"/>
<path d="M307.7 92.2059V115.715H296.842V57.5H321.808C324.033 57.5 326.107 57.9147 328.045 58.7356C329.983 59.5649 331.65 60.6905 333.046 62.1122C334.443 63.534 335.551 65.2181 336.38 67.156C337.21 69.094 337.616 71.1505 337.616 73.3085V75.8727C337.616 78.0392 337.201 80.0787 336.38 81.9828C335.551 83.8954 334.443 85.571 333.046 87.0266C331.65 88.4822 329.983 89.6078 328.045 90.4033C326.107 91.1988 324.025 91.5965 321.808 91.5965H318.905L338.649 115.699H326.251L307.7 92.1889V92.2059ZM307.7 67.6723V81.4327H320.098C322.544 81.4327 324.346 80.8319 325.48 79.6386C326.623 78.4454 327.19 76.7613 327.19 74.5948C327.19 72.5468 326.623 70.8797 325.48 69.5933C324.338 68.307 322.544 67.6723 320.098 67.6723H307.7Z" fill="#FFFEEE"/>
<path d="M354.525 77.5906V115.715H344.099V57.5H354.525L374.268 95.9718V57.5H384.441V115.715H374.268L354.525 77.5906Z" fill="#FFFEEE"/>
<path d="M391.262 57.5H402.119V115.715H391.262V57.5Z" fill="#FFFEEE"/>
<path d="M435.683 106.821H420.035L417.894 115.715H407.553L422.515 57.5H433.626L447.988 115.715H437.731L435.683 106.821ZM422.083 98.1891H433.711L428.329 74.4256H427.728L422.083 98.1891Z" fill="#FFFEEE"/>
<path d="M74.1189 182.402H74.7875C76.5139 174.557 78.2488 166.721 80.0006 158.901C81.7524 151.081 83.4957 143.253 85.2136 135.4H98.8979V200.487H89.5212V158.182H88.9457C87.414 165.265 85.8229 172.331 84.1642 179.381C82.5055 186.43 80.9399 193.463 79.4759 200.487L69.0413 200.58L60.1384 158.275H59.4699V200.487H50V135.4H63.6843L74.1189 182.394V182.402Z" fill="#FFFEEE"/>
<path d="M107.902 135.315H120.055V200.496H107.902V135.315Z" fill="#FFFEEE"/>
<path d="M156.623 189.198C158.476 189.198 159.974 188.639 161.125 187.522C162.276 186.405 163.037 185.051 163.418 183.452V172.636H152.603V162.396H174.428V200.487H163.418V198.38C162.14 199.082 160.752 199.607 159.255 199.962C157.757 200.318 156.242 200.487 154.71 200.487H148.109C145.553 200.487 143.133 199.996 140.831 199.006C138.538 198.016 136.523 196.662 134.806 194.936C133.079 193.209 131.725 191.203 130.735 188.91C129.745 186.617 129.254 184.154 129.254 181.539V154.357C129.254 151.742 129.745 149.27 130.735 146.935C131.725 144.607 133.079 142.576 134.806 140.858C136.532 139.132 138.538 137.778 140.831 136.788C143.124 135.798 145.553 135.307 148.109 135.307H156.343C158.831 135.307 161.125 135.755 163.232 136.644C165.339 137.541 167.176 138.768 168.733 140.325C170.298 141.891 171.559 143.719 172.516 145.826C173.472 147.933 174.081 150.201 174.335 152.622H162.563C162.115 150.963 161.429 149.558 160.507 148.407C159.585 147.256 158.163 146.681 156.25 146.681H148.211C147.127 146.681 146.12 146.892 145.198 147.307C144.275 147.722 143.488 148.314 142.854 149.076C142.219 149.846 141.72 150.718 141.373 151.708C141.017 152.698 140.848 153.764 140.848 154.915V180.854C140.848 182.004 141.026 183.071 141.373 184.061C141.72 185.051 142.219 185.931 142.854 186.693C143.488 187.463 144.275 188.064 145.198 188.512C146.12 188.961 147.127 189.181 148.211 189.181H156.631L156.623 189.198Z" fill="#FFFEEE"/>
<path d="M195.577 174.176V200.496H183.424V135.315H211.368C213.856 135.315 216.184 135.781 218.359 136.703C220.525 137.626 222.395 138.887 223.961 140.486C225.527 142.086 226.771 143.964 227.693 146.131C228.615 148.297 229.081 150.599 229.081 153.019V155.888C229.081 158.317 228.615 160.594 227.693 162.735C226.771 164.876 225.527 166.755 223.961 168.379C222.395 170.004 220.534 171.265 218.359 172.162C216.192 173.059 213.856 173.499 211.368 173.499H208.11L230.223 200.487H216.344L195.577 174.168V174.176ZM195.577 146.706V162.117H209.456C212.198 162.117 214.212 161.448 215.481 160.103C216.759 158.766 217.394 156.878 217.394 154.458C217.394 152.165 216.759 150.294 215.481 148.856C214.203 147.417 212.198 146.706 209.456 146.706H195.577Z" fill="#FFFEEE"/>
<path d="M264.295 190.543H246.777L244.382 200.496H232.796L249.544 135.315H261.984L278.063 200.496H266.58L264.286 190.543H264.295ZM249.078 180.87H262.094L256.069 154.263H255.4L249.087 180.87H249.078Z" fill="#FFFEEE"/>
<path d="M292.628 147.375H275.973V135.315H321.147V147.375H304.298V200.496H292.619V147.375H292.628Z" fill="#FFFEEE"/>
<path d="M327.562 135.315H339.715V200.496H327.562V135.315Z" fill="#FFFEEE"/>
<path d="M375.03 135.315C377.577 135.315 380.006 135.806 382.308 136.796C384.601 137.786 386.616 139.14 388.334 140.867C390.06 142.593 391.414 144.616 392.404 146.943C393.394 149.27 393.885 151.742 393.885 154.365V181.547C393.885 184.162 393.394 186.617 392.404 188.919C391.414 191.212 390.06 193.226 388.334 194.944C386.607 196.67 384.601 198.025 382.308 199.015C380.015 200.005 377.586 200.496 375.03 200.496H367.566C364.951 200.496 362.497 200.005 360.195 199.015C357.901 198.025 355.904 196.67 354.212 194.944C352.519 193.218 351.165 191.212 350.141 188.919C349.117 186.625 348.609 184.162 348.609 181.547V154.365C348.609 151.75 349.117 149.279 350.141 146.943C351.165 144.616 352.519 142.585 354.212 140.867C355.904 139.14 357.893 137.786 360.195 136.796C362.488 135.806 364.951 135.315 367.566 135.315H375.03ZM382.215 154.932C382.215 152.639 381.563 150.692 380.252 149.093C378.94 147.502 377.171 146.698 374.937 146.698H367.667C365.433 146.698 363.665 147.493 362.353 149.093C361.041 150.692 360.389 152.63 360.389 154.932V180.87C360.389 183.164 361.041 185.127 362.353 186.761C363.656 188.385 365.433 189.198 367.667 189.198H374.937C377.171 189.198 378.94 188.385 380.252 186.761C381.555 185.136 382.215 183.172 382.215 180.87V154.932Z" fill="#FFFEEE"/>
<path d="M414.754 157.809V200.496H403.076V135.315H414.754L436.868 178.382V135.315H448.258V200.496H436.868L414.754 157.809Z" fill="#FFFEEE"/>
<path d="M79.5266 277.727H80.3475C82.4548 268.122 84.5874 258.533 86.7369 248.962C88.8865 239.399 91.0106 229.802 93.1263 220.197H109.883V299.874H98.3986V248.082H97.6962C95.8175 256.756 93.8711 265.405 91.84 274.037C89.8089 282.669 87.8963 291.284 86.1022 299.874L73.3319 299.993L62.4318 248.2H61.6109V299.874H50V220.197H66.7563L79.5266 277.727Z" fill="#FFFEEE"/>
<path d="M176.307 276.678C176.307 279.885 175.723 282.889 174.547 285.699C173.37 288.508 171.737 290.971 169.63 293.078C167.523 295.186 165.06 296.844 162.25 298.055C159.441 299.265 156.428 299.874 153.229 299.874H144.208C141 299.874 137.996 299.273 135.186 298.055C132.377 296.844 129.897 295.186 127.748 293.078C125.598 290.971 123.922 288.508 122.712 285.699C121.502 282.889 120.893 279.885 120.893 276.678V220.087H135.305V275.857C135.305 277.261 135.559 278.573 136.066 279.783C136.574 280.994 137.277 282.068 138.174 283.008C139.071 283.947 140.129 284.692 141.339 285.233C142.549 285.783 143.818 286.054 145.147 286.054H152.18C153.508 286.054 154.778 285.783 155.988 285.233C157.198 284.692 158.231 283.947 159.094 283.008C159.948 282.068 160.651 280.994 161.201 279.783C161.743 278.573 162.022 277.261 162.022 275.857V220.087H176.315V276.678H176.307Z" fill="#FFFEEE"/>
<path d="M222.59 250.435C225.874 250.435 228.937 251.061 231.789 252.313C234.641 253.566 237.104 255.301 239.169 257.526C241.233 259.752 242.841 262.409 243.975 265.49C245.109 268.579 245.676 271.955 245.676 275.628C245.676 279.064 245.152 282.272 244.094 285.233C243.036 288.204 241.538 290.76 239.583 292.909C237.628 295.059 235.326 296.76 232.669 298.004C230.012 299.256 227.041 299.883 223.766 299.883H187.444V285.123H219.552C221.109 285.123 222.615 284.929 224.062 284.54C225.51 284.15 226.737 283.566 227.752 282.779C228.768 282.001 229.589 281.019 230.215 279.851C230.841 278.683 231.154 277.27 231.154 275.637C231.154 272.59 230.156 270.212 228.167 268.486C226.178 266.768 223.69 265.904 220.728 265.904H211.241C207.255 265.904 203.625 265.473 200.341 264.618C197.058 263.763 194.29 262.392 192.022 260.514C189.754 258.635 188.003 256.215 186.75 253.253C185.498 250.282 184.871 246.728 184.871 242.59C184.871 239.704 185.379 236.886 186.395 234.152C187.41 231.419 188.815 229.015 190.609 226.95C192.403 224.877 194.595 223.218 197.168 221.974C199.749 220.722 202.592 220.095 205.724 220.095H238.644V235.675H211.808C210.243 235.675 208.804 235.777 207.475 235.972C206.147 236.166 204.97 236.522 203.963 237.029C202.948 237.537 202.169 238.299 201.619 239.314C201.069 240.33 200.798 241.701 200.798 243.419C200.798 245.374 201.458 247.032 202.787 248.395C204.116 249.766 205.91 250.443 208.178 250.443H222.59V250.435Z" fill="#FFFEEE"/>
<path d="M270.506 286.401H310.231V299.874H255.392V220.078H310.231V233.551H270.506V253.236H310.231V266.59H270.506V286.393V286.401Z" fill="#FFFEEE"/>
<path d="M377.603 276.678C377.603 279.885 377.019 282.889 375.842 285.699C374.675 288.508 373.033 290.971 370.926 293.078C368.818 295.186 366.356 296.844 363.546 298.055C360.736 299.265 357.724 299.874 354.525 299.874H345.503C342.296 299.874 339.292 299.273 336.482 298.055C333.672 296.844 331.193 295.186 329.043 293.078C326.894 290.971 325.218 288.508 324.008 285.699C322.798 282.889 322.188 279.885 322.188 276.678V220.087H336.601V275.857C336.601 277.261 336.854 278.573 337.362 279.783C337.87 280.994 338.572 282.068 339.469 283.008C340.366 283.947 341.424 284.692 342.635 285.233C343.845 285.783 345.114 286.054 346.443 286.054H353.475C354.804 286.054 356.073 285.783 357.284 285.233C358.494 284.692 359.526 283.947 360.389 283.008C361.244 282.068 361.955 280.994 362.497 279.783C363.038 278.573 363.318 277.261 363.318 275.857V220.087H377.611V276.678H377.603Z" fill="#FFFEEE"/>
<path d="M417.902 277.727H418.723C420.831 268.122 422.963 258.533 425.113 248.962C427.262 239.399 429.386 229.802 431.494 220.197H448.25V299.874H436.766V248.082H436.064C434.185 256.756 432.238 265.405 430.207 274.037C428.176 282.669 426.264 291.284 424.47 299.874L411.699 299.993L400.799 248.2H399.978V299.874H388.376V220.197H405.132L417.902 277.727Z" fill="#FFFEEE"/>
</g>
<defs>
<clipPath id="clip0_105_64">
<rect width="398.5" height="257" fill="white" transform="translate(50 50)"/>
</clipPath>
</defs>
</svg>
